<mxfile host="app.diagrams.net" modified="2024-01-12T10:14:12.145Z" agent="Mozilla/5.0 (Windows NT 10.0; Win64; x64) AppleWebKit/537.36 (KHTML, like Gecko) Chrome/120.0.0.0 Safari/537.36 Edg/120.0.0.0" etag="aRdf_MC41BP5H5vvTj8x" version="22.1.18" type="github">
  <diagram name="Page-1" id="2YBvvXClWsGukQMizWep">
    <mxGraphModel dx="2464" dy="832" grid="1" gridSize="10" guides="1" tooltips="1" connect="1" arrows="1" fold="1" page="1" pageScale="1" pageWidth="850" pageHeight="1100" math="0" shadow="0">
      <root>
        <mxCell id="0" />
        <mxCell id="1" parent="0" />
        <mxCell id="aM9ryv3xv72pqoxQDRHE-1" value="&lt;font style=&quot;font-size: 12px;&quot;&gt;:&lt;/font&gt;&lt;font style=&quot;font-size: 10px;&quot;&gt;InvestmentRecord&lt;/font&gt;" style="shape=umlLifeline;perimeter=lifelinePerimeter;whiteSpace=wrap;html=1;container=0;dropTarget=0;collapsible=0;recursiveResize=0;outlineConnect=0;portConstraint=eastwest;newEdgeStyle={&quot;edgeStyle&quot;:&quot;elbowEdgeStyle&quot;,&quot;elbow&quot;:&quot;vertical&quot;,&quot;curved&quot;:0,&quot;rounded&quot;:0};" parent="1" vertex="1">
          <mxGeometry x="270" y="50" width="100" height="2120" as="geometry" />
        </mxCell>
        <mxCell id="0F8jDRwpQhIUNMn6P4Vn-10" value="" style="html=1;points=[[0,0,0,0,5],[0,1,0,0,-5],[1,0,0,0,5],[1,1,0,0,-5]];perimeter=orthogonalPerimeter;outlineConnect=0;targetShapes=umlLifeline;portConstraint=eastwest;newEdgeStyle={&quot;curved&quot;:0,&quot;rounded&quot;:0};" parent="aM9ryv3xv72pqoxQDRHE-1" vertex="1">
          <mxGeometry x="45" y="124" width="10" height="106" as="geometry" />
        </mxCell>
        <mxCell id="0F8jDRwpQhIUNMn6P4Vn-77" value="" style="html=1;points=[];perimeter=orthogonalPerimeter;outlineConnect=0;targetShapes=umlLifeline;portConstraint=eastwest;newEdgeStyle={&quot;edgeStyle&quot;:&quot;elbowEdgeStyle&quot;,&quot;elbow&quot;:&quot;vertical&quot;,&quot;curved&quot;:0,&quot;rounded&quot;:0};" parent="aM9ryv3xv72pqoxQDRHE-1" vertex="1">
          <mxGeometry x="45" y="948" width="10" height="92" as="geometry" />
        </mxCell>
        <mxCell id="aM9ryv3xv72pqoxQDRHE-5" value="&lt;font style=&quot;font-size: 10px;&quot;&gt;:InvestmentProduct&lt;/font&gt;" style="shape=umlLifeline;perimeter=lifelinePerimeter;whiteSpace=wrap;html=1;container=0;dropTarget=0;collapsible=0;recursiveResize=0;outlineConnect=0;portConstraint=eastwest;newEdgeStyle={&quot;edgeStyle&quot;:&quot;elbowEdgeStyle&quot;,&quot;elbow&quot;:&quot;vertical&quot;,&quot;curved&quot;:0,&quot;rounded&quot;:0};" parent="1" vertex="1">
          <mxGeometry x="450" y="50" width="100" height="2120" as="geometry" />
        </mxCell>
        <mxCell id="ZWPyIBg1fmBrResqL_RG-47" value="" style="html=1;points=[];perimeter=orthogonalPerimeter;outlineConnect=0;targetShapes=umlLifeline;portConstraint=eastwest;newEdgeStyle={&quot;edgeStyle&quot;:&quot;elbowEdgeStyle&quot;,&quot;elbow&quot;:&quot;vertical&quot;,&quot;curved&quot;:0,&quot;rounded&quot;:0};" vertex="1" parent="aM9ryv3xv72pqoxQDRHE-5">
          <mxGeometry x="45" y="260" width="10" height="56" as="geometry" />
        </mxCell>
        <mxCell id="ZWPyIBg1fmBrResqL_RG-60" value="" style="html=1;points=[];perimeter=orthogonalPerimeter;outlineConnect=0;targetShapes=umlLifeline;portConstraint=eastwest;newEdgeStyle={&quot;edgeStyle&quot;:&quot;elbowEdgeStyle&quot;,&quot;elbow&quot;:&quot;vertical&quot;,&quot;curved&quot;:0,&quot;rounded&quot;:0};" vertex="1" parent="aM9ryv3xv72pqoxQDRHE-5">
          <mxGeometry x="45" y="400" width="10" height="70" as="geometry" />
        </mxCell>
        <mxCell id="ORx9DDc8K5r6ulXrz52M-3" value="" style="shape=umlLifeline;perimeter=lifelinePerimeter;whiteSpace=wrap;html=1;container=1;dropTarget=0;collapsible=0;recursiveResize=0;outlineConnect=0;portConstraint=eastwest;newEdgeStyle={&quot;curved&quot;:0,&quot;rounded&quot;:0};participant=umlActor;" parent="1" vertex="1">
          <mxGeometry x="30" y="50" width="20" height="2120" as="geometry" />
        </mxCell>
        <mxCell id="aM9ryv3xv72pqoxQDRHE-2" value="" style="html=1;points=[];perimeter=orthogonalPerimeter;outlineConnect=0;targetShapes=umlLifeline;portConstraint=eastwest;newEdgeStyle={&quot;edgeStyle&quot;:&quot;elbowEdgeStyle&quot;,&quot;elbow&quot;:&quot;vertical&quot;,&quot;curved&quot;:0,&quot;rounded&quot;:0};" parent="ORx9DDc8K5r6ulXrz52M-3" vertex="1">
          <mxGeometry x="5" y="99" width="10" height="25" as="geometry" />
        </mxCell>
        <mxCell id="ZWPyIBg1fmBrResqL_RG-54" value="" style="html=1;points=[];perimeter=orthogonalPerimeter;outlineConnect=0;targetShapes=umlLifeline;portConstraint=eastwest;newEdgeStyle={&quot;edgeStyle&quot;:&quot;elbowEdgeStyle&quot;,&quot;elbow&quot;:&quot;vertical&quot;,&quot;curved&quot;:0,&quot;rounded&quot;:0};" vertex="1" parent="ORx9DDc8K5r6ulXrz52M-3">
          <mxGeometry x="5" y="329" width="10" height="58" as="geometry" />
        </mxCell>
        <mxCell id="aM9ryv3xv72pqoxQDRHE-3" value="" style="html=1;verticalAlign=bottom;startArrow=oval;endArrow=block;startSize=8;edgeStyle=elbowEdgeStyle;elbow=vertical;curved=0;rounded=0;" parent="1" edge="1">
          <mxGeometry x="0.0008" relative="1" as="geometry">
            <mxPoint x="-30" y="159.14" as="sourcePoint" />
            <mxPoint x="35" y="159.14" as="targetPoint" />
            <mxPoint as="offset" />
          </mxGeometry>
        </mxCell>
        <mxCell id="0F8jDRwpQhIUNMn6P4Vn-1" value=":Interface" style="shape=umlLifeline;perimeter=lifelinePerimeter;whiteSpace=wrap;html=1;container=1;dropTarget=0;collapsible=0;recursiveResize=0;outlineConnect=0;portConstraint=eastwest;newEdgeStyle={&quot;curved&quot;:0,&quot;rounded&quot;:0};" parent="1" vertex="1">
          <mxGeometry x="110" y="50" width="100" height="2120" as="geometry" />
        </mxCell>
        <mxCell id="0F8jDRwpQhIUNMn6P4Vn-27" value="" style="html=1;points=[];perimeter=orthogonalPerimeter;outlineConnect=0;targetShapes=umlLifeline;portConstraint=eastwest;newEdgeStyle={&quot;edgeStyle&quot;:&quot;elbowEdgeStyle&quot;,&quot;elbow&quot;:&quot;vertical&quot;,&quot;curved&quot;:0,&quot;rounded&quot;:0};" parent="0F8jDRwpQhIUNMn6P4Vn-1" vertex="1">
          <mxGeometry x="45" y="104" width="10" height="40" as="geometry" />
        </mxCell>
        <mxCell id="0F8jDRwpQhIUNMn6P4Vn-24" value="" style="html=1;points=[];perimeter=orthogonalPerimeter;outlineConnect=0;targetShapes=umlLifeline;portConstraint=eastwest;newEdgeStyle={&quot;edgeStyle&quot;:&quot;elbowEdgeStyle&quot;,&quot;elbow&quot;:&quot;vertical&quot;,&quot;curved&quot;:0,&quot;rounded&quot;:0};" parent="0F8jDRwpQhIUNMn6P4Vn-1" vertex="1">
          <mxGeometry x="45" y="500" width="10" height="130" as="geometry" />
        </mxCell>
        <mxCell id="ZWPyIBg1fmBrResqL_RG-86" value="" style="html=1;points=[];perimeter=orthogonalPerimeter;outlineConnect=0;targetShapes=umlLifeline;portConstraint=eastwest;newEdgeStyle={&quot;edgeStyle&quot;:&quot;elbowEdgeStyle&quot;,&quot;elbow&quot;:&quot;vertical&quot;,&quot;curved&quot;:0,&quot;rounded&quot;:0};" vertex="1" parent="0F8jDRwpQhIUNMn6P4Vn-1">
          <mxGeometry x="45" y="1010" width="10" height="60" as="geometry" />
        </mxCell>
        <mxCell id="0F8jDRwpQhIUNMn6P4Vn-3" value="点击新增投资" style="html=1;verticalAlign=bottom;endArrow=block;curved=0;rounded=0;" parent="1" edge="1">
          <mxGeometry x="-0.0002" width="80" relative="1" as="geometry">
            <mxPoint x="45" y="159" as="sourcePoint" />
            <mxPoint x="159.5" y="159" as="targetPoint" />
            <mxPoint as="offset" />
          </mxGeometry>
        </mxCell>
        <mxCell id="0F8jDRwpQhIUNMn6P4Vn-5" value=":DataAccess" style="shape=umlLifeline;perimeter=lifelinePerimeter;whiteSpace=wrap;html=1;container=1;dropTarget=0;collapsible=0;recursiveResize=0;outlineConnect=0;portConstraint=eastwest;newEdgeStyle={&quot;curved&quot;:0,&quot;rounded&quot;:0};" parent="1" vertex="1">
          <mxGeometry x="860" y="50" width="100" height="2120" as="geometry" />
        </mxCell>
        <mxCell id="ZWPyIBg1fmBrResqL_RG-74" value="" style="html=1;points=[];perimeter=orthogonalPerimeter;outlineConnect=0;targetShapes=umlLifeline;portConstraint=eastwest;newEdgeStyle={&quot;edgeStyle&quot;:&quot;elbowEdgeStyle&quot;,&quot;elbow&quot;:&quot;vertical&quot;,&quot;curved&quot;:0,&quot;rounded&quot;:0};" vertex="1" parent="0F8jDRwpQhIUNMn6P4Vn-5">
          <mxGeometry x="45" y="881" width="10" height="120" as="geometry" />
        </mxCell>
        <mxCell id="0F8jDRwpQhIUNMn6P4Vn-6" value="创建投资记录" style="html=1;verticalAlign=bottom;endArrow=block;curved=0;rounded=0;" parent="1" source="0F8jDRwpQhIUNMn6P4Vn-27" edge="1">
          <mxGeometry x="0.0033" width="80" relative="1" as="geometry">
            <mxPoint x="170" y="184" as="sourcePoint" />
            <mxPoint x="314.5" y="184" as="targetPoint" />
            <mxPoint as="offset" />
          </mxGeometry>
        </mxCell>
        <mxCell id="0F8jDRwpQhIUNMn6P4Vn-11" value="&lt;font style=&quot;font-size: 11px;&quot;&gt;未初始化&lt;/font&gt;" style="text;html=1;align=center;verticalAlign=middle;resizable=0;points=[];autosize=1;strokeColor=none;fillColor=none;" parent="1" vertex="1">
          <mxGeometry x="285" y="194" width="70" height="30" as="geometry" />
        </mxCell>
        <mxCell id="0F8jDRwpQhIUNMn6P4Vn-13" value="&lt;font style=&quot;font-size: 11px;&quot;&gt;新建投资产品&lt;/font&gt;" style="text;html=1;align=center;verticalAlign=middle;resizable=0;points=[];autosize=1;strokeColor=none;fillColor=none;" parent="1" vertex="1">
          <mxGeometry x="369" y="218" width="90" height="30" as="geometry" />
        </mxCell>
        <mxCell id="0F8jDRwpQhIUNMn6P4Vn-14" value="" style="html=1;verticalAlign=bottom;endArrow=block;curved=0;rounded=0;" parent="1" edge="1">
          <mxGeometry width="80" relative="1" as="geometry">
            <mxPoint x="325" y="242" as="sourcePoint" />
            <mxPoint x="499.5" y="242" as="targetPoint" />
          </mxGeometry>
        </mxCell>
        <mxCell id="0F8jDRwpQhIUNMn6P4Vn-16" value="&lt;font style=&quot;font-size: 11px;&quot;&gt;提示选择产品&lt;/font&gt;" style="text;html=1;align=center;verticalAlign=middle;resizable=0;points=[];autosize=1;strokeColor=none;fillColor=none;" parent="1" vertex="1">
          <mxGeometry x="55.07" y="364" width="90" height="30" as="geometry" />
        </mxCell>
        <mxCell id="0F8jDRwpQhIUNMn6P4Vn-22" value="输入投资信息" style="html=1;verticalAlign=bottom;endArrow=open;dashed=1;endSize=8;curved=0;rounded=0;" parent="1" edge="1">
          <mxGeometry x="-0.0002" relative="1" as="geometry">
            <mxPoint x="40.5" y="630" as="sourcePoint" />
            <mxPoint x="155" y="630" as="targetPoint" />
            <mxPoint as="offset" />
          </mxGeometry>
        </mxCell>
        <mxCell id="0F8jDRwpQhIUNMn6P4Vn-23" value="获得投资信息" style="html=1;verticalAlign=bottom;endArrow=open;dashed=1;endSize=8;curved=0;rounded=0;" parent="1" edge="1">
          <mxGeometry x="-0.0001" relative="1" as="geometry">
            <mxPoint x="165.04" y="652" as="sourcePoint" />
            <mxPoint x="319.54" y="652" as="targetPoint" />
            <mxPoint as="offset" />
          </mxGeometry>
        </mxCell>
        <mxCell id="0F8jDRwpQhIUNMn6P4Vn-25" value="" style="html=1;verticalAlign=bottom;endArrow=block;curved=0;rounded=0;exitX=0.961;exitY=1;exitDx=0;exitDy=0;exitPerimeter=0;" parent="1" edge="1" target="0F8jDRwpQhIUNMn6P4Vn-1">
          <mxGeometry width="80" relative="1" as="geometry">
            <mxPoint x="315.00000000000017" y="560" as="sourcePoint" />
            <mxPoint x="201.68" y="560" as="targetPoint" />
          </mxGeometry>
        </mxCell>
        <mxCell id="0F8jDRwpQhIUNMn6P4Vn-38" value="拉取市场信息" style="html=1;align=left;spacingLeft=2;endArrow=block;rounded=0;edgeStyle=orthogonalEdgeStyle;curved=0;rounded=0;" parent="1" edge="1">
          <mxGeometry relative="1" as="geometry">
            <mxPoint x="504.97" y="270" as="sourcePoint" />
            <Array as="points">
              <mxPoint x="534.97" y="269.97" />
              <mxPoint x="534.97" y="329.97" />
            </Array>
            <mxPoint x="504.97" y="329.97" as="targetPoint" />
            <mxPoint as="offset" />
          </mxGeometry>
        </mxCell>
        <mxCell id="0F8jDRwpQhIUNMn6P4Vn-66" value="信息检查合法" style="html=1;align=left;spacingLeft=2;endArrow=block;rounded=0;edgeStyle=orthogonalEdgeStyle;curved=0;rounded=0;" parent="1" edge="1">
          <mxGeometry x="-0.0005" relative="1" as="geometry">
            <mxPoint x="323.97" y="670" as="sourcePoint" />
            <Array as="points">
              <mxPoint x="353.97" y="669.97" />
              <mxPoint x="353.97" y="729.97" />
            </Array>
            <mxPoint x="323.97" y="729.97" as="targetPoint" />
            <mxPoint as="offset" />
          </mxGeometry>
        </mxCell>
        <mxCell id="0F8jDRwpQhIUNMn6P4Vn-79" value="&lt;font style=&quot;font-size: 11px;&quot;&gt;进行中&lt;/font&gt;" style="text;html=1;align=center;verticalAlign=middle;resizable=0;points=[];autosize=1;strokeColor=none;fillColor=none;" parent="1" vertex="1">
          <mxGeometry x="290" y="998" width="60" height="30" as="geometry" />
        </mxCell>
        <mxCell id="0F8jDRwpQhIUNMn6P4Vn-96" value="" style="html=1;verticalAlign=bottom;endArrow=block;curved=0;rounded=0;" parent="1" edge="1" target="ZWPyIBg1fmBrResqL_RG-1">
          <mxGeometry width="80" relative="1" as="geometry">
            <mxPoint x="325" y="770" as="sourcePoint" />
            <mxPoint x="483.5" y="770" as="targetPoint" />
          </mxGeometry>
        </mxCell>
        <mxCell id="0F8jDRwpQhIUNMn6P4Vn-97" value="" style="html=1;verticalAlign=bottom;endArrow=open;dashed=1;endSize=8;curved=0;rounded=0;" parent="1" edge="1">
          <mxGeometry x="0.0027" relative="1" as="geometry">
            <mxPoint x="703" y="869.9999999999999" as="sourcePoint" />
            <mxPoint x="328" y="870" as="targetPoint" />
            <mxPoint as="offset" />
          </mxGeometry>
        </mxCell>
        <mxCell id="ZWPyIBg1fmBrResqL_RG-1" value=":Wallet" style="shape=umlLifeline;perimeter=lifelinePerimeter;whiteSpace=wrap;html=1;container=1;dropTarget=0;collapsible=0;recursiveResize=0;outlineConnect=0;portConstraint=eastwest;newEdgeStyle={&quot;curved&quot;:0,&quot;rounded&quot;:0};" vertex="1" parent="1">
          <mxGeometry x="660" y="50" width="100" height="2120" as="geometry" />
        </mxCell>
        <mxCell id="ZWPyIBg1fmBrResqL_RG-2" value="alt" style="shape=umlFrame;whiteSpace=wrap;html=1;pointerEvents=0;" vertex="1" parent="1">
          <mxGeometry x="-10" y="109" width="1010" height="1031" as="geometry" />
        </mxCell>
        <mxCell id="ZWPyIBg1fmBrResqL_RG-39" value="" style="html=1;points=[];perimeter=orthogonalPerimeter;outlineConnect=0;targetShapes=umlLifeline;portConstraint=eastwest;newEdgeStyle={&quot;edgeStyle&quot;:&quot;elbowEdgeStyle&quot;,&quot;elbow&quot;:&quot;vertical&quot;,&quot;curved&quot;:0,&quot;rounded&quot;:0};" vertex="1" parent="1">
          <mxGeometry x="495" y="224" width="10" height="56" as="geometry" />
        </mxCell>
        <mxCell id="ZWPyIBg1fmBrResqL_RG-46" value="&lt;font style=&quot;font-size: 11px;&quot;&gt;未初始化&lt;/font&gt;" style="text;html=1;align=center;verticalAlign=middle;resizable=0;points=[];autosize=1;strokeColor=none;fillColor=none;" vertex="1" parent="1">
          <mxGeometry x="465" y="207" width="70" height="30" as="geometry" />
        </mxCell>
        <mxCell id="ZWPyIBg1fmBrResqL_RG-48" value="&lt;font style=&quot;font-size: 11px;&quot;&gt;成功创建&lt;/font&gt;" style="text;html=1;align=center;verticalAlign=middle;resizable=0;points=[];autosize=1;strokeColor=none;fillColor=none;" vertex="1" parent="1">
          <mxGeometry x="465" y="296" width="70" height="30" as="geometry" />
        </mxCell>
        <mxCell id="ZWPyIBg1fmBrResqL_RG-51" value="" style="html=1;verticalAlign=bottom;endArrow=block;curved=0;rounded=0;exitX=0.961;exitY=1;exitDx=0;exitDy=0;exitPerimeter=0;" edge="1" parent="1">
          <mxGeometry width="80" relative="1" as="geometry">
            <mxPoint x="495.00000000000017" y="354" as="sourcePoint" />
            <mxPoint x="159.5" y="354" as="targetPoint" />
          </mxGeometry>
        </mxCell>
        <mxCell id="ZWPyIBg1fmBrResqL_RG-50" value="" style="html=1;points=[];perimeter=orthogonalPerimeter;outlineConnect=0;targetShapes=umlLifeline;portConstraint=eastwest;newEdgeStyle={&quot;edgeStyle&quot;:&quot;elbowEdgeStyle&quot;,&quot;elbow&quot;:&quot;vertical&quot;,&quot;curved&quot;:0,&quot;rounded&quot;:0};" vertex="1" parent="1">
          <mxGeometry x="155" y="342" width="10" height="158" as="geometry" />
        </mxCell>
        <mxCell id="ZWPyIBg1fmBrResqL_RG-52" value="&lt;font style=&quot;font-size: 11px;&quot;&gt;显示投资产品信息&lt;/font&gt;" style="text;html=1;align=center;verticalAlign=middle;resizable=0;points=[];autosize=1;strokeColor=none;fillColor=none;" vertex="1" parent="1">
          <mxGeometry x="319.54" y="330" width="110" height="30" as="geometry" />
        </mxCell>
        <mxCell id="ZWPyIBg1fmBrResqL_RG-57" value="" style="html=1;verticalAlign=bottom;endArrow=block;curved=0;rounded=0;exitX=0.961;exitY=1;exitDx=0;exitDy=0;exitPerimeter=0;" edge="1" parent="1">
          <mxGeometry width="80" relative="1" as="geometry">
            <mxPoint x="155.00000000000017" y="389" as="sourcePoint" />
            <mxPoint x="41.68" y="389" as="targetPoint" />
          </mxGeometry>
        </mxCell>
        <mxCell id="ZWPyIBg1fmBrResqL_RG-58" value="选择投资产品" style="html=1;verticalAlign=bottom;endArrow=open;dashed=1;endSize=8;curved=0;rounded=0;" edge="1" parent="1">
          <mxGeometry x="-0.0002" relative="1" as="geometry">
            <mxPoint x="43.82" y="428" as="sourcePoint" />
            <mxPoint x="158.32" y="428" as="targetPoint" />
            <mxPoint as="offset" />
          </mxGeometry>
        </mxCell>
        <mxCell id="ZWPyIBg1fmBrResqL_RG-59" value="" style="html=1;verticalAlign=bottom;endArrow=open;dashed=1;endSize=8;curved=0;rounded=0;" edge="1" parent="1" target="aM9ryv3xv72pqoxQDRHE-5">
          <mxGeometry x="-0.0002" relative="1" as="geometry">
            <mxPoint x="165" y="470" as="sourcePoint" />
            <mxPoint x="279.5" y="470" as="targetPoint" />
            <mxPoint as="offset" />
          </mxGeometry>
        </mxCell>
        <mxCell id="ZWPyIBg1fmBrResqL_RG-61" value="&lt;font style=&quot;font-size: 11px;&quot;&gt;用户选择产品&lt;/font&gt;" style="text;html=1;align=center;verticalAlign=middle;resizable=0;points=[];autosize=1;strokeColor=none;fillColor=none;" vertex="1" parent="1">
          <mxGeometry x="325" y="445" width="90" height="30" as="geometry" />
        </mxCell>
        <mxCell id="ZWPyIBg1fmBrResqL_RG-62" value="&lt;font style=&quot;font-size: 11px;&quot;&gt;已选中/未选中&lt;/font&gt;" style="text;html=1;align=center;verticalAlign=middle;resizable=0;points=[];autosize=1;strokeColor=none;fillColor=none;" vertex="1" parent="1">
          <mxGeometry x="455" y="430" width="90" height="30" as="geometry" />
        </mxCell>
        <mxCell id="ZWPyIBg1fmBrResqL_RG-63" value="" style="html=1;verticalAlign=bottom;endArrow=open;dashed=1;endSize=8;curved=0;rounded=0;" edge="1" parent="1">
          <mxGeometry x="-0.0045" relative="1" as="geometry">
            <mxPoint x="495" y="510" as="sourcePoint" />
            <mxPoint x="321.92857142857133" y="510" as="targetPoint" />
            <mxPoint as="offset" />
          </mxGeometry>
        </mxCell>
        <mxCell id="ZWPyIBg1fmBrResqL_RG-64" value="&lt;font style=&quot;font-size: 11px;&quot;&gt;返回产品信息&lt;/font&gt;" style="text;html=1;align=center;verticalAlign=middle;resizable=0;points=[];autosize=1;strokeColor=none;fillColor=none;" vertex="1" parent="1">
          <mxGeometry x="366" y="487" width="90" height="30" as="geometry" />
        </mxCell>
        <mxCell id="ZWPyIBg1fmBrResqL_RG-66" value="" style="html=1;points=[[0,0,0,0,5],[0,1,0,0,-5],[1,0,0,0,5],[1,1,0,0,-5]];perimeter=orthogonalPerimeter;outlineConnect=0;targetShapes=umlLifeline;portConstraint=eastwest;newEdgeStyle={&quot;curved&quot;:0,&quot;rounded&quot;:0};" vertex="1" parent="1">
          <mxGeometry x="315" y="497" width="10" height="473" as="geometry" />
        </mxCell>
        <mxCell id="ZWPyIBg1fmBrResqL_RG-67" value="&lt;font style=&quot;font-size: 11px;&quot;&gt;待审核&lt;/font&gt;" style="text;html=1;align=center;verticalAlign=middle;resizable=0;points=[];autosize=1;strokeColor=none;fillColor=none;" vertex="1" parent="1">
          <mxGeometry x="285" y="520" width="60" height="30" as="geometry" />
        </mxCell>
        <mxCell id="0F8jDRwpQhIUNMn6P4Vn-4" value="" style="html=1;points=[];perimeter=orthogonalPerimeter;outlineConnect=0;targetShapes=umlLifeline;portConstraint=eastwest;newEdgeStyle={&quot;edgeStyle&quot;:&quot;elbowEdgeStyle&quot;,&quot;elbow&quot;:&quot;vertical&quot;,&quot;curved&quot;:0,&quot;rounded&quot;:0};" parent="1" vertex="1">
          <mxGeometry x="34" y="575" width="10" height="85" as="geometry" />
        </mxCell>
        <mxCell id="ZWPyIBg1fmBrResqL_RG-68" value="" style="html=1;verticalAlign=bottom;endArrow=block;curved=0;rounded=0;exitX=0.961;exitY=1;exitDx=0;exitDy=0;exitPerimeter=0;" edge="1" parent="1">
          <mxGeometry width="80" relative="1" as="geometry">
            <mxPoint x="156.32000000000016" y="590" as="sourcePoint" />
            <mxPoint x="43" y="590" as="targetPoint" />
          </mxGeometry>
        </mxCell>
        <mxCell id="ZWPyIBg1fmBrResqL_RG-69" value="&lt;font style=&quot;font-size: 11px;&quot;&gt;等待投资信息&lt;/font&gt;" style="text;html=1;align=center;verticalAlign=middle;resizable=0;points=[];autosize=1;strokeColor=none;fillColor=none;" vertex="1" parent="1">
          <mxGeometry x="195" y="535" width="90" height="30" as="geometry" />
        </mxCell>
        <mxCell id="ZWPyIBg1fmBrResqL_RG-70" value="&lt;font style=&quot;font-size: 11px;&quot;&gt;提示输入投资信息&lt;/font&gt;" style="text;html=1;align=center;verticalAlign=middle;resizable=0;points=[];autosize=1;strokeColor=none;fillColor=none;" vertex="1" parent="1">
          <mxGeometry x="45.06999999999999" y="564" width="110" height="30" as="geometry" />
        </mxCell>
        <mxCell id="0F8jDRwpQhIUNMn6P4Vn-93" value="" style="html=1;points=[];perimeter=orthogonalPerimeter;outlineConnect=0;targetShapes=umlLifeline;portConstraint=eastwest;newEdgeStyle={&quot;edgeStyle&quot;:&quot;elbowEdgeStyle&quot;,&quot;elbow&quot;:&quot;vertical&quot;,&quot;curved&quot;:0,&quot;rounded&quot;:0};" parent="1" vertex="1">
          <mxGeometry x="705" y="750" width="10" height="150" as="geometry" />
        </mxCell>
        <mxCell id="ZWPyIBg1fmBrResqL_RG-73" value="&lt;font style=&quot;font-size: 11px;&quot;&gt;绑定钱包信息&lt;/font&gt;" style="text;html=1;align=center;verticalAlign=middle;resizable=0;points=[];autosize=1;strokeColor=none;fillColor=none;" vertex="1" parent="1">
          <mxGeometry x="520" y="745.5" width="90" height="30" as="geometry" />
        </mxCell>
        <mxCell id="ZWPyIBg1fmBrResqL_RG-76" value="汇率转换" style="html=1;align=left;spacingLeft=2;endArrow=block;rounded=0;edgeStyle=orthogonalEdgeStyle;curved=0;rounded=0;" edge="1" parent="1">
          <mxGeometry relative="1" as="geometry">
            <mxPoint x="715" y="790" as="sourcePoint" />
            <Array as="points">
              <mxPoint x="745" y="789.97" />
              <mxPoint x="745" y="849.97" />
            </Array>
            <mxPoint x="715" y="849.97" as="targetPoint" />
            <mxPoint as="offset" />
          </mxGeometry>
        </mxCell>
        <mxCell id="ZWPyIBg1fmBrResqL_RG-78" value="&lt;font style=&quot;font-size: 11px;&quot;&gt;成功绑定&lt;/font&gt;" style="text;html=1;align=center;verticalAlign=middle;resizable=0;points=[];autosize=1;strokeColor=none;fillColor=none;" vertex="1" parent="1">
          <mxGeometry x="529" y="846" width="70" height="30" as="geometry" />
        </mxCell>
        <mxCell id="ZWPyIBg1fmBrResqL_RG-79" value="" style="html=1;verticalAlign=bottom;endArrow=block;curved=0;rounded=0;" edge="1" parent="1" target="ZWPyIBg1fmBrResqL_RG-74">
          <mxGeometry width="80" relative="1" as="geometry">
            <mxPoint x="325" y="950" as="sourcePoint" />
            <mxPoint x="710" y="950" as="targetPoint" />
          </mxGeometry>
        </mxCell>
        <mxCell id="ZWPyIBg1fmBrResqL_RG-80" value="&lt;font style=&quot;font-size: 11px;&quot;&gt;存储投资信息&lt;/font&gt;" style="text;html=1;align=center;verticalAlign=middle;resizable=0;points=[];autosize=1;strokeColor=none;fillColor=none;" vertex="1" parent="1">
          <mxGeometry x="569" y="926" width="90" height="30" as="geometry" />
        </mxCell>
        <mxCell id="ZWPyIBg1fmBrResqL_RG-81" value="" style="html=1;verticalAlign=bottom;endArrow=open;dashed=1;endSize=8;curved=0;rounded=0;" edge="1" parent="1">
          <mxGeometry x="0.0027" relative="1" as="geometry">
            <mxPoint x="904" y="1031" as="sourcePoint" />
            <mxPoint x="330" y="1031" as="targetPoint" />
            <mxPoint as="offset" />
          </mxGeometry>
        </mxCell>
        <mxCell id="ZWPyIBg1fmBrResqL_RG-82" value="&lt;font style=&quot;font-size: 11px;&quot;&gt;信息存储成功&lt;/font&gt;" style="text;html=1;align=center;verticalAlign=middle;resizable=0;points=[];autosize=1;strokeColor=none;fillColor=none;" vertex="1" parent="1">
          <mxGeometry x="570" y="1006" width="90" height="30" as="geometry" />
        </mxCell>
        <mxCell id="ZWPyIBg1fmBrResqL_RG-88" value="" style="html=1;verticalAlign=bottom;endArrow=open;dashed=1;endSize=8;curved=0;rounded=0;" edge="1" parent="1">
          <mxGeometry x="0.0027" relative="1" as="geometry">
            <mxPoint x="310" y="1070" as="sourcePoint" />
            <mxPoint x="165" y="1070" as="targetPoint" />
            <mxPoint as="offset" />
          </mxGeometry>
        </mxCell>
        <mxCell id="ZWPyIBg1fmBrResqL_RG-89" value="&lt;font style=&quot;font-size: 11px;&quot;&gt;提示新增成功&lt;/font&gt;" style="text;html=1;align=center;verticalAlign=middle;resizable=0;points=[];autosize=1;strokeColor=none;fillColor=none;" vertex="1" parent="1">
          <mxGeometry x="195" y="1048" width="90" height="30" as="geometry" />
        </mxCell>
        <mxCell id="ZWPyIBg1fmBrResqL_RG-255" value="" style="html=1;points=[[0,0,0,0,5],[0,1,0,0,-5],[1,0,0,0,5],[1,1,0,0,-5]];perimeter=orthogonalPerimeter;outlineConnect=0;targetShapes=umlLifeline;portConstraint=eastwest;newEdgeStyle={&quot;curved&quot;:0,&quot;rounded&quot;:0};" vertex="1" parent="1">
          <mxGeometry x="315" y="1205" width="10" height="125" as="geometry" />
        </mxCell>
        <mxCell id="ZWPyIBg1fmBrResqL_RG-256" value="" style="html=1;points=[];perimeter=orthogonalPerimeter;outlineConnect=0;targetShapes=umlLifeline;portConstraint=eastwest;newEdgeStyle={&quot;edgeStyle&quot;:&quot;elbowEdgeStyle&quot;,&quot;elbow&quot;:&quot;vertical&quot;,&quot;curved&quot;:0,&quot;rounded&quot;:0};" vertex="1" parent="1">
          <mxGeometry x="311" y="3124" width="10" height="92" as="geometry" />
        </mxCell>
        <mxCell id="ZWPyIBg1fmBrResqL_RG-257" value="" style="html=1;points=[];perimeter=orthogonalPerimeter;outlineConnect=0;targetShapes=umlLifeline;portConstraint=eastwest;newEdgeStyle={&quot;edgeStyle&quot;:&quot;elbowEdgeStyle&quot;,&quot;elbow&quot;:&quot;vertical&quot;,&quot;curved&quot;:0,&quot;rounded&quot;:0};" vertex="1" parent="1">
          <mxGeometry x="491" y="2436" width="10" height="56" as="geometry" />
        </mxCell>
        <mxCell id="ZWPyIBg1fmBrResqL_RG-258" value="" style="html=1;points=[];perimeter=orthogonalPerimeter;outlineConnect=0;targetShapes=umlLifeline;portConstraint=eastwest;newEdgeStyle={&quot;edgeStyle&quot;:&quot;elbowEdgeStyle&quot;,&quot;elbow&quot;:&quot;vertical&quot;,&quot;curved&quot;:0,&quot;rounded&quot;:0};" vertex="1" parent="1">
          <mxGeometry x="491" y="2576" width="10" height="70" as="geometry" />
        </mxCell>
        <mxCell id="ZWPyIBg1fmBrResqL_RG-259" value="" style="html=1;points=[];perimeter=orthogonalPerimeter;outlineConnect=0;targetShapes=umlLifeline;portConstraint=eastwest;newEdgeStyle={&quot;edgeStyle&quot;:&quot;elbowEdgeStyle&quot;,&quot;elbow&quot;:&quot;vertical&quot;,&quot;curved&quot;:0,&quot;rounded&quot;:0};" vertex="1" parent="1">
          <mxGeometry x="35" y="1180" width="10" height="25" as="geometry" />
        </mxCell>
        <mxCell id="ZWPyIBg1fmBrResqL_RG-260" value="" style="html=1;points=[];perimeter=orthogonalPerimeter;outlineConnect=0;targetShapes=umlLifeline;portConstraint=eastwest;newEdgeStyle={&quot;edgeStyle&quot;:&quot;elbowEdgeStyle&quot;,&quot;elbow&quot;:&quot;vertical&quot;,&quot;curved&quot;:0,&quot;rounded&quot;:0};" vertex="1" parent="1">
          <mxGeometry x="31" y="2505" width="10" height="58" as="geometry" />
        </mxCell>
        <mxCell id="ZWPyIBg1fmBrResqL_RG-261" value="" style="html=1;verticalAlign=bottom;startArrow=oval;endArrow=block;startSize=8;edgeStyle=elbowEdgeStyle;elbow=vertical;curved=0;rounded=0;" edge="1" parent="1">
          <mxGeometry x="0.0008" relative="1" as="geometry">
            <mxPoint x="-30" y="1190.1399999999999" as="sourcePoint" />
            <mxPoint x="35" y="1190.1399999999999" as="targetPoint" />
            <mxPoint as="offset" />
          </mxGeometry>
        </mxCell>
        <mxCell id="ZWPyIBg1fmBrResqL_RG-262" value="" style="html=1;points=[];perimeter=orthogonalPerimeter;outlineConnect=0;targetShapes=umlLifeline;portConstraint=eastwest;newEdgeStyle={&quot;edgeStyle&quot;:&quot;elbowEdgeStyle&quot;,&quot;elbow&quot;:&quot;vertical&quot;,&quot;curved&quot;:0,&quot;rounded&quot;:0};" vertex="1" parent="1">
          <mxGeometry x="155" y="1185" width="10" height="405" as="geometry" />
        </mxCell>
        <mxCell id="ZWPyIBg1fmBrResqL_RG-263" value="" style="html=1;points=[];perimeter=orthogonalPerimeter;outlineConnect=0;targetShapes=umlLifeline;portConstraint=eastwest;newEdgeStyle={&quot;edgeStyle&quot;:&quot;elbowEdgeStyle&quot;,&quot;elbow&quot;:&quot;vertical&quot;,&quot;curved&quot;:0,&quot;rounded&quot;:0};" vertex="1" parent="1">
          <mxGeometry x="151" y="2676" width="10" height="130" as="geometry" />
        </mxCell>
        <mxCell id="ZWPyIBg1fmBrResqL_RG-264" value="" style="html=1;points=[];perimeter=orthogonalPerimeter;outlineConnect=0;targetShapes=umlLifeline;portConstraint=eastwest;newEdgeStyle={&quot;edgeStyle&quot;:&quot;elbowEdgeStyle&quot;,&quot;elbow&quot;:&quot;vertical&quot;,&quot;curved&quot;:0,&quot;rounded&quot;:0};" vertex="1" parent="1">
          <mxGeometry x="155" y="2908" width="10" height="60" as="geometry" />
        </mxCell>
        <mxCell id="ZWPyIBg1fmBrResqL_RG-265" value="点击投资管理" style="html=1;verticalAlign=bottom;endArrow=block;curved=0;rounded=0;" edge="1" parent="1">
          <mxGeometry x="-0.0002" width="80" relative="1" as="geometry">
            <mxPoint x="45" y="1190" as="sourcePoint" />
            <mxPoint x="159.5" y="1190" as="targetPoint" />
            <mxPoint as="offset" />
          </mxGeometry>
        </mxCell>
        <mxCell id="ZWPyIBg1fmBrResqL_RG-266" value="" style="html=1;points=[];perimeter=orthogonalPerimeter;outlineConnect=0;targetShapes=umlLifeline;portConstraint=eastwest;newEdgeStyle={&quot;edgeStyle&quot;:&quot;elbowEdgeStyle&quot;,&quot;elbow&quot;:&quot;vertical&quot;,&quot;curved&quot;:0,&quot;rounded&quot;:0};" vertex="1" parent="1">
          <mxGeometry x="901" y="3057" width="10" height="120" as="geometry" />
        </mxCell>
        <mxCell id="ZWPyIBg1fmBrResqL_RG-267" value="创建投资记录" style="html=1;verticalAlign=bottom;endArrow=block;curved=0;rounded=0;" edge="1" parent="1">
          <mxGeometry x="0.0033" width="80" relative="1" as="geometry">
            <mxPoint x="161" y="2310" as="sourcePoint" />
            <mxPoint x="310.5" y="2310" as="targetPoint" />
            <mxPoint as="offset" />
          </mxGeometry>
        </mxCell>
        <mxCell id="ZWPyIBg1fmBrResqL_RG-268" value="&lt;font style=&quot;font-size: 11px;&quot;&gt;未初始化&lt;/font&gt;" style="text;html=1;align=center;verticalAlign=middle;resizable=0;points=[];autosize=1;strokeColor=none;fillColor=none;" vertex="1" parent="1">
          <mxGeometry x="281" y="2320" width="70" height="30" as="geometry" />
        </mxCell>
        <mxCell id="ZWPyIBg1fmBrResqL_RG-269" value="&lt;font style=&quot;font-size: 11px;&quot;&gt;新建投资产品&lt;/font&gt;" style="text;html=1;align=center;verticalAlign=middle;resizable=0;points=[];autosize=1;strokeColor=none;fillColor=none;" vertex="1" parent="1">
          <mxGeometry x="365" y="2344" width="90" height="30" as="geometry" />
        </mxCell>
        <mxCell id="ZWPyIBg1fmBrResqL_RG-270" value="" style="html=1;verticalAlign=bottom;endArrow=block;curved=0;rounded=0;" edge="1" parent="1">
          <mxGeometry width="80" relative="1" as="geometry">
            <mxPoint x="321" y="2368" as="sourcePoint" />
            <mxPoint x="495.5" y="2368" as="targetPoint" />
          </mxGeometry>
        </mxCell>
        <mxCell id="ZWPyIBg1fmBrResqL_RG-271" value="&lt;font style=&quot;font-size: 11px;&quot;&gt;提示选择产品&lt;/font&gt;" style="text;html=1;align=center;verticalAlign=middle;resizable=0;points=[];autosize=1;strokeColor=none;fillColor=none;" vertex="1" parent="1">
          <mxGeometry x="51.06999999999999" y="2490" width="90" height="30" as="geometry" />
        </mxCell>
        <mxCell id="ZWPyIBg1fmBrResqL_RG-272" value="输入投资信息" style="html=1;verticalAlign=bottom;endArrow=open;dashed=1;endSize=8;curved=0;rounded=0;" edge="1" parent="1">
          <mxGeometry x="-0.0002" relative="1" as="geometry">
            <mxPoint x="36.5" y="2756" as="sourcePoint" />
            <mxPoint x="151" y="2756" as="targetPoint" />
            <mxPoint as="offset" />
          </mxGeometry>
        </mxCell>
        <mxCell id="ZWPyIBg1fmBrResqL_RG-273" value="获得投资信息" style="html=1;verticalAlign=bottom;endArrow=open;dashed=1;endSize=8;curved=0;rounded=0;" edge="1" parent="1">
          <mxGeometry x="-0.0001" relative="1" as="geometry">
            <mxPoint x="161.04" y="2778" as="sourcePoint" />
            <mxPoint x="315.54" y="2778" as="targetPoint" />
            <mxPoint as="offset" />
          </mxGeometry>
        </mxCell>
        <mxCell id="ZWPyIBg1fmBrResqL_RG-274" value="" style="html=1;verticalAlign=bottom;endArrow=block;curved=0;rounded=0;exitX=0.961;exitY=1;exitDx=0;exitDy=0;exitPerimeter=0;" edge="1" parent="1">
          <mxGeometry width="80" relative="1" as="geometry">
            <mxPoint x="311.00000000000017" y="2686" as="sourcePoint" />
            <mxPoint x="155" y="2686" as="targetPoint" />
          </mxGeometry>
        </mxCell>
        <mxCell id="ZWPyIBg1fmBrResqL_RG-275" value="拉取市场信息" style="html=1;align=left;spacingLeft=2;endArrow=block;rounded=0;edgeStyle=orthogonalEdgeStyle;curved=0;rounded=0;" edge="1" parent="1">
          <mxGeometry relative="1" as="geometry">
            <mxPoint x="500.97" y="2396" as="sourcePoint" />
            <Array as="points">
              <mxPoint x="530.97" y="2395.9700000000003" />
              <mxPoint x="530.97" y="2455.9700000000003" />
            </Array>
            <mxPoint x="500.97" y="2455.9700000000003" as="targetPoint" />
            <mxPoint as="offset" />
          </mxGeometry>
        </mxCell>
        <mxCell id="ZWPyIBg1fmBrResqL_RG-276" value="信息检查合法" style="html=1;align=left;spacingLeft=2;endArrow=block;rounded=0;edgeStyle=orthogonalEdgeStyle;curved=0;rounded=0;" edge="1" parent="1">
          <mxGeometry x="-0.0005" relative="1" as="geometry">
            <mxPoint x="319.97" y="2796" as="sourcePoint" />
            <Array as="points">
              <mxPoint x="349.97" y="2795.9700000000003" />
              <mxPoint x="349.97" y="2855.9700000000003" />
            </Array>
            <mxPoint x="319.97" y="2855.9700000000003" as="targetPoint" />
            <mxPoint as="offset" />
          </mxGeometry>
        </mxCell>
        <mxCell id="ZWPyIBg1fmBrResqL_RG-277" value="&lt;font style=&quot;font-size: 11px;&quot;&gt;进行中&lt;/font&gt;" style="text;html=1;align=center;verticalAlign=middle;resizable=0;points=[];autosize=1;strokeColor=none;fillColor=none;" vertex="1" parent="1">
          <mxGeometry x="286" y="3124" width="60" height="30" as="geometry" />
        </mxCell>
        <mxCell id="ZWPyIBg1fmBrResqL_RG-278" value="" style="html=1;verticalAlign=bottom;endArrow=block;curved=0;rounded=0;" edge="1" parent="1">
          <mxGeometry width="80" relative="1" as="geometry">
            <mxPoint x="321" y="2896" as="sourcePoint" />
            <mxPoint x="706" y="2896" as="targetPoint" />
          </mxGeometry>
        </mxCell>
        <mxCell id="ZWPyIBg1fmBrResqL_RG-279" value="" style="html=1;verticalAlign=bottom;endArrow=open;dashed=1;endSize=8;curved=0;rounded=0;" edge="1" parent="1">
          <mxGeometry x="0.0027" relative="1" as="geometry">
            <mxPoint x="699" y="2996" as="sourcePoint" />
            <mxPoint x="324" y="2996" as="targetPoint" />
            <mxPoint as="offset" />
          </mxGeometry>
        </mxCell>
        <mxCell id="ZWPyIBg1fmBrResqL_RG-280" value="" style="shape=umlFrame;whiteSpace=wrap;html=1;pointerEvents=0;" vertex="1" parent="1">
          <mxGeometry x="-10" y="1140" width="1010" height="1031" as="geometry" />
        </mxCell>
        <mxCell id="ZWPyIBg1fmBrResqL_RG-281" value="" style="html=1;points=[];perimeter=orthogonalPerimeter;outlineConnect=0;targetShapes=umlLifeline;portConstraint=eastwest;newEdgeStyle={&quot;edgeStyle&quot;:&quot;elbowEdgeStyle&quot;,&quot;elbow&quot;:&quot;vertical&quot;,&quot;curved&quot;:0,&quot;rounded&quot;:0};" vertex="1" parent="1">
          <mxGeometry x="491" y="2350" width="10" height="56" as="geometry" />
        </mxCell>
        <mxCell id="ZWPyIBg1fmBrResqL_RG-282" value="&lt;font style=&quot;font-size: 11px;&quot;&gt;未初始化&lt;/font&gt;" style="text;html=1;align=center;verticalAlign=middle;resizable=0;points=[];autosize=1;strokeColor=none;fillColor=none;" vertex="1" parent="1">
          <mxGeometry x="461" y="2333" width="70" height="30" as="geometry" />
        </mxCell>
        <mxCell id="ZWPyIBg1fmBrResqL_RG-283" value="&lt;font style=&quot;font-size: 11px;&quot;&gt;成功创建&lt;/font&gt;" style="text;html=1;align=center;verticalAlign=middle;resizable=0;points=[];autosize=1;strokeColor=none;fillColor=none;" vertex="1" parent="1">
          <mxGeometry x="461" y="2422" width="70" height="30" as="geometry" />
        </mxCell>
        <mxCell id="ZWPyIBg1fmBrResqL_RG-284" value="" style="html=1;verticalAlign=bottom;endArrow=block;curved=0;rounded=0;exitX=0.961;exitY=1;exitDx=0;exitDy=0;exitPerimeter=0;" edge="1" parent="1">
          <mxGeometry width="80" relative="1" as="geometry">
            <mxPoint x="491.0000000000002" y="2480" as="sourcePoint" />
            <mxPoint x="155.5" y="2480" as="targetPoint" />
          </mxGeometry>
        </mxCell>
        <mxCell id="ZWPyIBg1fmBrResqL_RG-285" value="" style="html=1;points=[];perimeter=orthogonalPerimeter;outlineConnect=0;targetShapes=umlLifeline;portConstraint=eastwest;newEdgeStyle={&quot;edgeStyle&quot;:&quot;elbowEdgeStyle&quot;,&quot;elbow&quot;:&quot;vertical&quot;,&quot;curved&quot;:0,&quot;rounded&quot;:0};" vertex="1" parent="1">
          <mxGeometry x="151" y="2468" width="10" height="158" as="geometry" />
        </mxCell>
        <mxCell id="ZWPyIBg1fmBrResqL_RG-286" value="&lt;font style=&quot;font-size: 11px;&quot;&gt;显示投资产品信息&lt;/font&gt;" style="text;html=1;align=center;verticalAlign=middle;resizable=0;points=[];autosize=1;strokeColor=none;fillColor=none;" vertex="1" parent="1">
          <mxGeometry x="315.54" y="2456" width="110" height="30" as="geometry" />
        </mxCell>
        <mxCell id="ZWPyIBg1fmBrResqL_RG-287" value="" style="html=1;verticalAlign=bottom;endArrow=block;curved=0;rounded=0;exitX=0.961;exitY=1;exitDx=0;exitDy=0;exitPerimeter=0;" edge="1" parent="1">
          <mxGeometry width="80" relative="1" as="geometry">
            <mxPoint x="151.00000000000017" y="2515" as="sourcePoint" />
            <mxPoint x="37.68000000000001" y="2515" as="targetPoint" />
          </mxGeometry>
        </mxCell>
        <mxCell id="ZWPyIBg1fmBrResqL_RG-288" value="选择投资产品" style="html=1;verticalAlign=bottom;endArrow=open;dashed=1;endSize=8;curved=0;rounded=0;" edge="1" parent="1">
          <mxGeometry x="-0.0002" relative="1" as="geometry">
            <mxPoint x="39.81999999999999" y="2554" as="sourcePoint" />
            <mxPoint x="154.32" y="2554" as="targetPoint" />
            <mxPoint as="offset" />
          </mxGeometry>
        </mxCell>
        <mxCell id="ZWPyIBg1fmBrResqL_RG-289" value="" style="html=1;verticalAlign=bottom;endArrow=open;dashed=1;endSize=8;curved=0;rounded=0;" edge="1" parent="1">
          <mxGeometry x="-0.0002" relative="1" as="geometry">
            <mxPoint x="161" y="2596" as="sourcePoint" />
            <mxPoint x="496" y="2596" as="targetPoint" />
            <mxPoint as="offset" />
          </mxGeometry>
        </mxCell>
        <mxCell id="ZWPyIBg1fmBrResqL_RG-290" value="&lt;font style=&quot;font-size: 11px;&quot;&gt;用户选择产品&lt;/font&gt;" style="text;html=1;align=center;verticalAlign=middle;resizable=0;points=[];autosize=1;strokeColor=none;fillColor=none;" vertex="1" parent="1">
          <mxGeometry x="321" y="2571" width="90" height="30" as="geometry" />
        </mxCell>
        <mxCell id="ZWPyIBg1fmBrResqL_RG-291" value="&lt;font style=&quot;font-size: 11px;&quot;&gt;已选中/未选中&lt;/font&gt;" style="text;html=1;align=center;verticalAlign=middle;resizable=0;points=[];autosize=1;strokeColor=none;fillColor=none;" vertex="1" parent="1">
          <mxGeometry x="451" y="2556" width="90" height="30" as="geometry" />
        </mxCell>
        <mxCell id="ZWPyIBg1fmBrResqL_RG-292" value="" style="html=1;verticalAlign=bottom;endArrow=open;dashed=1;endSize=8;curved=0;rounded=0;" edge="1" parent="1">
          <mxGeometry x="-0.0045" relative="1" as="geometry">
            <mxPoint x="491" y="2636" as="sourcePoint" />
            <mxPoint x="317.92857142857133" y="2636" as="targetPoint" />
            <mxPoint as="offset" />
          </mxGeometry>
        </mxCell>
        <mxCell id="ZWPyIBg1fmBrResqL_RG-293" value="&lt;font style=&quot;font-size: 11px;&quot;&gt;返回产品信息&lt;/font&gt;" style="text;html=1;align=center;verticalAlign=middle;resizable=0;points=[];autosize=1;strokeColor=none;fillColor=none;" vertex="1" parent="1">
          <mxGeometry x="362" y="2613" width="90" height="30" as="geometry" />
        </mxCell>
        <mxCell id="ZWPyIBg1fmBrResqL_RG-294" value="" style="html=1;points=[[0,0,0,0,5],[0,1,0,0,-5],[1,0,0,0,5],[1,1,0,0,-5]];perimeter=orthogonalPerimeter;outlineConnect=0;targetShapes=umlLifeline;portConstraint=eastwest;newEdgeStyle={&quot;curved&quot;:0,&quot;rounded&quot;:0};" vertex="1" parent="1">
          <mxGeometry x="311" y="2623" width="10" height="473" as="geometry" />
        </mxCell>
        <mxCell id="ZWPyIBg1fmBrResqL_RG-295" value="&lt;font style=&quot;font-size: 11px;&quot;&gt;待审核&lt;/font&gt;" style="text;html=1;align=center;verticalAlign=middle;resizable=0;points=[];autosize=1;strokeColor=none;fillColor=none;" vertex="1" parent="1">
          <mxGeometry x="281" y="2646" width="60" height="30" as="geometry" />
        </mxCell>
        <mxCell id="ZWPyIBg1fmBrResqL_RG-296" value="" style="html=1;points=[];perimeter=orthogonalPerimeter;outlineConnect=0;targetShapes=umlLifeline;portConstraint=eastwest;newEdgeStyle={&quot;edgeStyle&quot;:&quot;elbowEdgeStyle&quot;,&quot;elbow&quot;:&quot;vertical&quot;,&quot;curved&quot;:0,&quot;rounded&quot;:0};" vertex="1" parent="1">
          <mxGeometry x="30" y="2701" width="10" height="85" as="geometry" />
        </mxCell>
        <mxCell id="ZWPyIBg1fmBrResqL_RG-297" value="" style="html=1;verticalAlign=bottom;endArrow=block;curved=0;rounded=0;exitX=0.961;exitY=1;exitDx=0;exitDy=0;exitPerimeter=0;" edge="1" parent="1">
          <mxGeometry width="80" relative="1" as="geometry">
            <mxPoint x="152.32000000000016" y="2716" as="sourcePoint" />
            <mxPoint x="39" y="2716" as="targetPoint" />
          </mxGeometry>
        </mxCell>
        <mxCell id="ZWPyIBg1fmBrResqL_RG-298" value="&lt;font style=&quot;font-size: 11px;&quot;&gt;等待投资信息&lt;/font&gt;" style="text;html=1;align=center;verticalAlign=middle;resizable=0;points=[];autosize=1;strokeColor=none;fillColor=none;" vertex="1" parent="1">
          <mxGeometry x="191" y="2661" width="90" height="30" as="geometry" />
        </mxCell>
        <mxCell id="ZWPyIBg1fmBrResqL_RG-299" value="&lt;font style=&quot;font-size: 11px;&quot;&gt;提示输入投资信息&lt;/font&gt;" style="text;html=1;align=center;verticalAlign=middle;resizable=0;points=[];autosize=1;strokeColor=none;fillColor=none;" vertex="1" parent="1">
          <mxGeometry x="41.06999999999999" y="2690" width="110" height="30" as="geometry" />
        </mxCell>
        <mxCell id="ZWPyIBg1fmBrResqL_RG-300" value="" style="html=1;points=[];perimeter=orthogonalPerimeter;outlineConnect=0;targetShapes=umlLifeline;portConstraint=eastwest;newEdgeStyle={&quot;edgeStyle&quot;:&quot;elbowEdgeStyle&quot;,&quot;elbow&quot;:&quot;vertical&quot;,&quot;curved&quot;:0,&quot;rounded&quot;:0};" vertex="1" parent="1">
          <mxGeometry x="701" y="2876" width="10" height="150" as="geometry" />
        </mxCell>
        <mxCell id="ZWPyIBg1fmBrResqL_RG-301" value="&lt;font style=&quot;font-size: 11px;&quot;&gt;绑定钱包信息&lt;/font&gt;" style="text;html=1;align=center;verticalAlign=middle;resizable=0;points=[];autosize=1;strokeColor=none;fillColor=none;" vertex="1" parent="1">
          <mxGeometry x="516" y="2871.5" width="90" height="30" as="geometry" />
        </mxCell>
        <mxCell id="ZWPyIBg1fmBrResqL_RG-302" value="汇率转换" style="html=1;align=left;spacingLeft=2;endArrow=block;rounded=0;edgeStyle=orthogonalEdgeStyle;curved=0;rounded=0;" edge="1" parent="1">
          <mxGeometry relative="1" as="geometry">
            <mxPoint x="711" y="2916" as="sourcePoint" />
            <Array as="points">
              <mxPoint x="741" y="2915.9700000000003" />
              <mxPoint x="741" y="2975.9700000000003" />
            </Array>
            <mxPoint x="711" y="2975.9700000000003" as="targetPoint" />
            <mxPoint as="offset" />
          </mxGeometry>
        </mxCell>
        <mxCell id="ZWPyIBg1fmBrResqL_RG-303" value="&lt;font style=&quot;font-size: 11px;&quot;&gt;成功绑定&lt;/font&gt;" style="text;html=1;align=center;verticalAlign=middle;resizable=0;points=[];autosize=1;strokeColor=none;fillColor=none;" vertex="1" parent="1">
          <mxGeometry x="525" y="2972" width="70" height="30" as="geometry" />
        </mxCell>
        <mxCell id="ZWPyIBg1fmBrResqL_RG-304" value="" style="html=1;verticalAlign=bottom;endArrow=block;curved=0;rounded=0;" edge="1" parent="1" target="ZWPyIBg1fmBrResqL_RG-266">
          <mxGeometry width="80" relative="1" as="geometry">
            <mxPoint x="321" y="3076" as="sourcePoint" />
            <mxPoint x="706" y="3076" as="targetPoint" />
          </mxGeometry>
        </mxCell>
        <mxCell id="ZWPyIBg1fmBrResqL_RG-305" value="&lt;font style=&quot;font-size: 11px;&quot;&gt;存储投资信息&lt;/font&gt;" style="text;html=1;align=center;verticalAlign=middle;resizable=0;points=[];autosize=1;strokeColor=none;fillColor=none;" vertex="1" parent="1">
          <mxGeometry x="565" y="3052" width="90" height="30" as="geometry" />
        </mxCell>
        <mxCell id="ZWPyIBg1fmBrResqL_RG-306" value="" style="html=1;verticalAlign=bottom;endArrow=open;dashed=1;endSize=8;curved=0;rounded=0;" edge="1" parent="1">
          <mxGeometry x="0.0027" relative="1" as="geometry">
            <mxPoint x="900" y="3157" as="sourcePoint" />
            <mxPoint x="326" y="3157" as="targetPoint" />
            <mxPoint as="offset" />
          </mxGeometry>
        </mxCell>
        <mxCell id="ZWPyIBg1fmBrResqL_RG-307" value="&lt;font style=&quot;font-size: 11px;&quot;&gt;信息存储成功&lt;/font&gt;" style="text;html=1;align=center;verticalAlign=middle;resizable=0;points=[];autosize=1;strokeColor=none;fillColor=none;" vertex="1" parent="1">
          <mxGeometry x="566" y="3132" width="90" height="30" as="geometry" />
        </mxCell>
        <mxCell id="ZWPyIBg1fmBrResqL_RG-308" value="" style="html=1;verticalAlign=bottom;endArrow=open;dashed=1;endSize=8;curved=0;rounded=0;" edge="1" parent="1">
          <mxGeometry x="0.0027" relative="1" as="geometry">
            <mxPoint x="306" y="3196" as="sourcePoint" />
            <mxPoint x="161" y="3196" as="targetPoint" />
            <mxPoint as="offset" />
          </mxGeometry>
        </mxCell>
        <mxCell id="ZWPyIBg1fmBrResqL_RG-309" value="&lt;font style=&quot;font-size: 11px;&quot;&gt;提示新增成功&lt;/font&gt;" style="text;html=1;align=center;verticalAlign=middle;resizable=0;points=[];autosize=1;strokeColor=none;fillColor=none;" vertex="1" parent="1">
          <mxGeometry x="191" y="3174" width="90" height="30" as="geometry" />
        </mxCell>
        <mxCell id="ZWPyIBg1fmBrResqL_RG-311" value="等待投资记录" style="html=1;verticalAlign=bottom;endArrow=block;curved=0;rounded=0;" edge="1" parent="1">
          <mxGeometry x="0.0033" width="80" relative="1" as="geometry">
            <mxPoint x="165" y="1210" as="sourcePoint" />
            <mxPoint x="314.5" y="1210" as="targetPoint" />
            <mxPoint as="offset" />
          </mxGeometry>
        </mxCell>
        <mxCell id="ZWPyIBg1fmBrResqL_RG-312" value="" style="html=1;points=[];perimeter=orthogonalPerimeter;outlineConnect=0;targetShapes=umlLifeline;portConstraint=eastwest;newEdgeStyle={&quot;edgeStyle&quot;:&quot;elbowEdgeStyle&quot;,&quot;elbow&quot;:&quot;vertical&quot;,&quot;curved&quot;:0,&quot;rounded&quot;:0};" vertex="1" parent="1">
          <mxGeometry x="905" y="1210" width="10" height="110" as="geometry" />
        </mxCell>
        <mxCell id="ZWPyIBg1fmBrResqL_RG-313" value="" style="html=1;verticalAlign=bottom;endArrow=block;curved=0;rounded=0;" edge="1" parent="1" target="ZWPyIBg1fmBrResqL_RG-312">
          <mxGeometry width="80" relative="1" as="geometry">
            <mxPoint x="325" y="1229" as="sourcePoint" />
            <mxPoint x="710" y="1229" as="targetPoint" />
          </mxGeometry>
        </mxCell>
        <mxCell id="ZWPyIBg1fmBrResqL_RG-314" value="&lt;font style=&quot;font-size: 11px;&quot;&gt;筛选投资信息&lt;/font&gt;" style="text;html=1;align=center;verticalAlign=middle;resizable=0;points=[];autosize=1;strokeColor=none;fillColor=none;" vertex="1" parent="1">
          <mxGeometry x="569" y="1205" width="90" height="30" as="geometry" />
        </mxCell>
        <mxCell id="ZWPyIBg1fmBrResqL_RG-315" value="" style="html=1;verticalAlign=bottom;endArrow=open;dashed=1;endSize=8;curved=0;rounded=0;" edge="1" parent="1">
          <mxGeometry x="0.0027" relative="1" as="geometry">
            <mxPoint x="904" y="1299" as="sourcePoint" />
            <mxPoint x="330" y="1299" as="targetPoint" />
            <mxPoint as="offset" />
          </mxGeometry>
        </mxCell>
        <mxCell id="ZWPyIBg1fmBrResqL_RG-316" value="&lt;font style=&quot;font-size: 11px;&quot;&gt;返回投资记录&lt;/font&gt;" style="text;html=1;align=center;verticalAlign=middle;resizable=0;points=[];autosize=1;strokeColor=none;fillColor=none;" vertex="1" parent="1">
          <mxGeometry x="570" y="1274" width="90" height="30" as="geometry" />
        </mxCell>
        <mxCell id="ZWPyIBg1fmBrResqL_RG-317" value="" style="html=1;verticalAlign=bottom;endArrow=open;dashed=1;endSize=8;curved=0;rounded=0;" edge="1" parent="1">
          <mxGeometry x="0.0027" relative="1" as="geometry">
            <mxPoint x="315" y="1318" as="sourcePoint" />
            <mxPoint x="170" y="1318" as="targetPoint" />
            <mxPoint as="offset" />
          </mxGeometry>
        </mxCell>
        <mxCell id="ZWPyIBg1fmBrResqL_RG-318" value="&lt;font style=&quot;font-size: 11px;&quot;&gt;返回投资记录&lt;/font&gt;" style="text;html=1;align=center;verticalAlign=middle;resizable=0;points=[];autosize=1;strokeColor=none;fillColor=none;" vertex="1" parent="1">
          <mxGeometry x="200" y="1296" width="90" height="30" as="geometry" />
        </mxCell>
        <mxCell id="ZWPyIBg1fmBrResqL_RG-319" value="选择投资记录" style="html=1;verticalAlign=bottom;endArrow=open;dashed=1;endSize=8;curved=0;rounded=0;" edge="1" parent="1">
          <mxGeometry x="-0.0044" relative="1" as="geometry">
            <mxPoint x="41.25" y="1386" as="sourcePoint" />
            <mxPoint x="155.75" y="1386" as="targetPoint" />
            <mxPoint as="offset" />
          </mxGeometry>
        </mxCell>
        <mxCell id="ZWPyIBg1fmBrResqL_RG-320" value="" style="html=1;points=[];perimeter=orthogonalPerimeter;outlineConnect=0;targetShapes=umlLifeline;portConstraint=eastwest;newEdgeStyle={&quot;edgeStyle&quot;:&quot;elbowEdgeStyle&quot;,&quot;elbow&quot;:&quot;vertical&quot;,&quot;curved&quot;:0,&quot;rounded&quot;:0};" vertex="1" parent="1">
          <mxGeometry x="34.75" y="1331" width="10" height="179" as="geometry" />
        </mxCell>
        <mxCell id="ZWPyIBg1fmBrResqL_RG-321" value="" style="html=1;verticalAlign=bottom;endArrow=block;curved=0;rounded=0;exitX=0.961;exitY=1;exitDx=0;exitDy=0;exitPerimeter=0;" edge="1" parent="1">
          <mxGeometry width="80" relative="1" as="geometry">
            <mxPoint x="157.07000000000016" y="1346" as="sourcePoint" />
            <mxPoint x="43.75" y="1346" as="targetPoint" />
          </mxGeometry>
        </mxCell>
        <mxCell id="ZWPyIBg1fmBrResqL_RG-322" value="&lt;font style=&quot;font-size: 11px;&quot;&gt;等待选择一条记录&lt;/font&gt;" style="text;html=1;align=center;verticalAlign=middle;resizable=0;points=[];autosize=1;strokeColor=none;fillColor=none;" vertex="1" parent="1">
          <mxGeometry x="45.81999999999999" y="1320" width="110" height="30" as="geometry" />
        </mxCell>
        <mxCell id="ZWPyIBg1fmBrResqL_RG-323" value="&lt;font style=&quot;font-size: 11px;&quot;&gt;进行中&lt;/font&gt;" style="text;html=1;align=center;verticalAlign=middle;resizable=0;points=[];autosize=1;strokeColor=none;fillColor=none;" vertex="1" parent="1">
          <mxGeometry x="291" y="1175" width="60" height="30" as="geometry" />
        </mxCell>
        <mxCell id="ZWPyIBg1fmBrResqL_RG-324" value="[点击新增投资]" style="text;html=1;align=center;verticalAlign=middle;resizable=0;points=[];autosize=1;strokeColor=none;fillColor=none;" vertex="1" parent="1">
          <mxGeometry x="49" y="108" width="100" height="30" as="geometry" />
        </mxCell>
        <mxCell id="ZWPyIBg1fmBrResqL_RG-325" value="[点击投资管理]" style="text;html=1;align=center;verticalAlign=middle;resizable=0;points=[];autosize=1;strokeColor=none;fillColor=none;" vertex="1" parent="1">
          <mxGeometry x="48" y="1138" width="100" height="30" as="geometry" />
        </mxCell>
        <mxCell id="ZWPyIBg1fmBrResqL_RG-335" value="选择操作" style="html=1;verticalAlign=bottom;endArrow=open;dashed=1;endSize=8;curved=0;rounded=0;" edge="1" parent="1">
          <mxGeometry x="-0.0044" relative="1" as="geometry">
            <mxPoint x="43.25" y="1493" as="sourcePoint" />
            <mxPoint x="157.75" y="1493" as="targetPoint" />
            <mxPoint as="offset" />
          </mxGeometry>
        </mxCell>
        <mxCell id="ZWPyIBg1fmBrResqL_RG-336" value="" style="html=1;verticalAlign=bottom;endArrow=block;curved=0;rounded=0;exitX=0.961;exitY=1;exitDx=0;exitDy=0;exitPerimeter=0;" edge="1" parent="1">
          <mxGeometry width="80" relative="1" as="geometry">
            <mxPoint x="159.07000000000016" y="1453" as="sourcePoint" />
            <mxPoint x="45.75" y="1453" as="targetPoint" />
          </mxGeometry>
        </mxCell>
        <mxCell id="ZWPyIBg1fmBrResqL_RG-337" value="&lt;font style=&quot;font-size: 11px;&quot;&gt;等待选择希望进行的操作&lt;/font&gt;" style="text;html=1;align=center;verticalAlign=middle;resizable=0;points=[];autosize=1;strokeColor=none;fillColor=none;" vertex="1" parent="1">
          <mxGeometry x="32.81999999999999" y="1427" width="140" height="30" as="geometry" />
        </mxCell>
        <mxCell id="ZWPyIBg1fmBrResqL_RG-338" value="alt" style="shape=umlFrame;whiteSpace=wrap;html=1;pointerEvents=0;" vertex="1" parent="1">
          <mxGeometry x="191" y="1500" width="754" height="440" as="geometry" />
        </mxCell>
        <mxCell id="ZWPyIBg1fmBrResqL_RG-339" value="[选择修改操作]" style="text;html=1;align=center;verticalAlign=middle;resizable=0;points=[];autosize=1;strokeColor=none;fillColor=none;" vertex="1" parent="1">
          <mxGeometry x="247" y="1498" width="100" height="30" as="geometry" />
        </mxCell>
      </root>
    </mxGraphModel>
  </diagram>
</mxfile>
